<svg class="svg-icon" style="width: 1em;height: 1em;vertical-align: middle;fill: currentColor;overflow: hidden;" viewBox="0 0 1024 1024" version="1.1" xmlns="http://www.w3.org/2000/svg"><path d="M731.59 847.04c0.29-0.02 0.57-0.04 0.86-0.05 0.8-0.06 1.59-0.12 2.38-0.19 0.32-0.03 0.64-0.05 0.96-0.09 0.81-0.08 1.62-0.18 2.43-0.28 26.09-3.2 49.55-15.82 66.51-35.61 12.38-14.27 20.98-31.89 24.28-51.29 0.09-0.51 0.17-1.01 0.25-1.52l0.06-0.4c0.94-6.11 1.34-12.27 1.18-18.42V303.94c0-58.12-47.29-105.41-105.41-105.41h-437.9c-58.12 0-105.41 47.29-105.41 105.41v437.9c0 58.12 47.29 105.41 105.41 105.41h437.9c1.08 0 2.16-0.02 3.24-0.05 0.21-0.01 0.41-0.02 0.62-0.02 0.87-0.04 1.76-0.08 2.64-0.14zM287.18 242.53h437.9c33.86 0 61.41 27.55 61.41 61.41V637.6l-30.44-52.73c-19.05-33-53.18-52.71-91.29-52.71-38.11 0-72.23 19.7-91.29 52.71l-2.55 4.41-62.74-108.68c-19.05-33-53.18-52.71-91.29-52.7-38.11 0-72.23 19.7-91.29 52.7l-99.84 172.92V303.94c0.01-33.86 27.56-61.41 61.42-61.41z m-43.86 530.01c-11.1-19.23-11.1-42.18 0-61.41L363.71 502.6c11.1-19.23 30.98-30.7 53.18-30.7s42.08 11.48 53.18 30.7l120.39 208.53c0.48 0.84 0.94 1.69 1.38 2.54 0.12 0.22 0.23 0.45 0.35 0.67 0.4 0.79 0.78 1.59 1.15 2.39 0.14 0.31 0.27 0.61 0.4 0.92a55.352 55.352 0 0 1 1.56 3.96c0.08 0.23 0.17 0.46 0.25 0.7 0.2 0.6 0.39 1.19 0.58 1.79 0.03 0.09 0.05 0.18 0.08 0.27a60.262 60.262 0 0 1 2.55 19.37v0.1c-0.02 0.62-0.05 1.24-0.09 1.86-0.02 0.37-0.06 0.73-0.09 1.1-0.06 0.68-0.12 1.36-0.2 2.04-0.08 0.64-0.16 1.28-0.26 1.93-0.03 0.22-0.06 0.44-0.1 0.67a59.515 59.515 0 0 1-0.58 3.04c-0.45 2.08-1.01 4.15-1.68 6.2a63.322 63.322 0 0 1-3.77 9.06l-0.06 0.12c-0.95 1.85-1.99 3.64-3.11 5.38-0.07 0.11-0.14 0.21-0.21 0.32-0.56 0.86-1.14 1.71-1.74 2.53 0 0.01-0.01 0.01-0.01 0.02a61.614 61.614 0 0 1-16.12 15.35l-0.27 0.18c-0.83 0.53-1.66 1.05-2.52 1.54-0.12 0.07-0.25 0.14-0.38 0.21-0.67 0.38-1.35 0.74-2.03 1.1-0.28 0.15-0.56 0.29-0.85 0.44-0.7 0.35-1.41 0.68-2.12 1-7.77 3.48-16.34 5.35-25.28 5.35H296.5c-22.2-0.03-42.08-11.51-53.18-30.74z m379.66 30.71c1.49-2.1 2.91-4.26 4.27-6.49 0.13-0.22 0.26-0.44 0.4-0.66 0.31-0.52 0.63-1.03 0.93-1.56 0.22-0.38 0.43-0.77 0.65-1.16 0.13-0.23 0.26-0.47 0.39-0.7 0.57-1.03 1.12-2.06 1.65-3.1 0.03-0.07 0.07-0.13 0.1-0.2 7.24-14.25 11.07-29.53 11.46-44.87 0-0.13 0-0.26 0.01-0.39 0.02-0.94 0.03-1.89 0.03-2.83 0-0.9-0.02-1.8-0.04-2.7 0-0.15-0.01-0.31-0.02-0.46-0.03-1.01-0.09-2.03-0.15-3.04 0-0.03 0-0.05-0.01-0.08-0.81-12.44-3.88-24.72-9.18-36.39-0.03-0.07-0.06-0.13-0.09-0.2-0.41-0.9-0.84-1.8-1.27-2.69l-0.36-0.72c-0.37-0.75-0.76-1.49-1.15-2.24-0.14-0.26-0.27-0.52-0.41-0.78-0.52-0.96-1.05-1.92-1.6-2.87l-32.24-55.85 15.25-26.41c11.1-19.23 30.98-30.71 53.18-30.71s42.08 11.48 53.18 30.71l60.2 104.26c11.1 19.23 11.1 42.18 0 61.41-2.42 4.18-5.25 8-8.43 11.41-0.08 0.09-0.17 0.18-0.25 0.26-0.37 0.39-0.75 0.79-1.13 1.17-8.96 8.9-20.64 15.06-33.67 17.11l-0.62 0.09c-0.72 0.11-1.45 0.2-2.19 0.28-0.23 0.02-0.45 0.06-0.68 0.08-0.83 0.08-1.66 0.14-2.5 0.19-0.32 0.02-0.64 0.03-0.95 0.05-0.8 0.03-1.61 0.06-2.42 0.06-0.11 0-0.23 0.01-0.34 0.01h-102z" fill="#6D6D6D" /><path d="M657.31 430.2c38 0 68.92-30.92 68.92-68.92s-30.92-68.92-68.92-68.92-68.92 30.92-68.92 68.92 30.92 68.92 68.92 68.92z m0-93.84c13.74 0 24.92 11.18 24.92 24.92 0 13.74-11.18 24.92-24.92 24.92-13.74 0-24.92-11.18-24.92-24.92 0-13.74 11.18-24.92 24.92-24.92z" fill="#6D6D6D" /></svg>